<?xml version="1.0" encoding="UTF-8"?>
<svg xmlns="http://www.w3.org/2000/svg"
     xmlns:xlink="http://www.w3.org/1999/xlink"
     xmlns:gadfly="http://www.gadflyjl.org/ns"
     version="1.2"
     width="304.8mm" height="152.4mm" viewBox="0 0 304.8 152.4"
     stroke="none"
     fill="#000000"
     stroke-width="0.3"
     font-size="3.88"
>
<g stroke="#000000" stroke-opacity="0.000" fill="#222831" id="img-c2d4a47a-1">
  <rect x="0" y="0" width="304.8" height="152.4"/>
</g>
<g class="plotroot xscalable yscalable" id="img-c2d4a47a-2">
  <g font-size="3.88" font-family="'PT Sans','Helvetica Neue','Helvetica',sans-serif" fill="#A1A1A1" stroke="#000000" stroke-opacity="0.000" id="img-c2d4a47a-3">
    <text x="158.8" y="140.78" text-anchor="middle" dy="0.6em">time (sec)</text>
  </g>
  <g class="guide xlabels" font-size="2.82" font-family="'PT Sans Caption','Helvetica Neue','Helvetica',sans-serif" fill="#A1A1A1" id="img-c2d4a47a-4">
    <text x="19.79" y="134.49" text-anchor="middle" dy="0.6em">0</text>
    <text x="112.46" y="134.49" text-anchor="middle" dy="0.6em">1×10³</text>
    <text x="205.13" y="134.49" text-anchor="middle" dy="0.6em">2×10³</text>
    <text x="297.8" y="134.49" text-anchor="middle" dy="0.6em">3×10³</text>
  </g>
<g clip-path="url(#img-c2d4a47a-5)">
  <g id="img-c2d4a47a-6">
    <g pointer-events="visible" opacity="1" fill="#222831" stroke="#000000" stroke-opacity="0.000" class="guide background" id="img-c2d4a47a-7">
      <rect x="17.79" y="5" width="282.01" height="128.49"/>
    </g>
    <g class="guide ygridlines xfixed" stroke-dasharray="0.5,0.5" stroke-width="0.2" stroke="#575757" id="img-c2d4a47a-8">
      <path fill="none" d="M17.79,131.49 L 299.8 131.49"/>
      <path fill="none" d="M17.79,106.59 L 299.8 106.59"/>
      <path fill="none" d="M17.79,81.69 L 299.8 81.69"/>
      <path fill="none" d="M17.79,56.8 L 299.8 56.8"/>
      <path fill="none" d="M17.79,31.9 L 299.8 31.9"/>
      <path fill="none" d="M17.79,7 L 299.8 7"/>
    </g>
    <g class="guide xgridlines yfixed" stroke-dasharray="0.5,0.5" stroke-width="0.2" stroke="#575757" id="img-c2d4a47a-9">
      <path fill="none" d="M19.79,5 L 19.79 133.49"/>
      <path fill="none" d="M112.46,5 L 112.46 133.49"/>
      <path fill="none" d="M205.13,5 L 205.13 133.49"/>
      <path fill="none" d="M297.8,5 L 297.8 133.49"/>
    </g>
    <g class="plotpanel" id="img-c2d4a47a-10">
      <g class="yfixed" stroke-dasharray="none" stroke-width="0.3" stroke="#FFFF00" id="img-c2d4a47a-11">
        <path fill="none" d="M104.96,5 L 104.96 133.49"/>
      </g>
      <g class="xfixed" stroke-dasharray="none" stroke-width="0.3" stroke="#FFFF00" id="img-c2d4a47a-12">
        <path fill="none" d="M17.79,130.05 L 299.8 130.05"/>
      </g>
      <g stroke-width="0.3" fill="#000000" fill-opacity="0.000" class="geometry" stroke-dasharray="none" stroke="#FE4365" id="img-c2d4a47a-13">
        <path fill="none" d="M19.89,83.78 L 19.98 82.52 20.07 81.23 20.16 79.94 20.26 78.62 20.35 77.29 20.44 75.94 20.54 74.58 20.63 73.2 20.72 71.82 20.81 70.42 20.91 69.01 21 67.6 21.09 66.17 21.18 64.73 21.28 63.29 21.37 61.84 21.46 60.38 21.55 58.92 21.65 57.45 21.74 55.97 21.83 54.49 21.93 53 22.02 51.51 22.11 50.02 22.2 48.51 22.3 47.01 22.39 45.5 22.48 43.99 22.57 42.47 22.67 40.95 22.76 39.43 22.85 37.9 22.94 44.24 23.04 50.56 23.13 56.86 23.22 63.12 23.32 69.35 23.41 75.52 23.5 81.61 23.59 87.61 23.69 93.44 23.78 99.04 23.87 104.24 23.96 108.8 24.06 112.23 24.15 113.86 24.24 113.35 24.33 112.72 24.43 111.97 24.52 111.12 24.61 110.18 24.71 109.16 24.8 108.07 24.89 106.93 24.98 105.73 25.08 104.48 25.17 103.2 25.26 101.89 25.35 100.9 25.45 99.87 25.54 98.78 25.63 97.65 25.72 96.49 25.82 95.28 25.91 94.05 26 92.78 26.1 91.49 26.19 90.18 26.28 88.84 26.37 87.48 26.47 86.11 26.56 84.72 26.65 83.31 26.74 81.89 26.84 80.46 26.93 79.02 27.02 80.74 27.11 82.46 27.21 84.18 27.3 85.9 27.39 87.62 27.49 89.35 27.58 91.07 27.67 92.79 27.76 94.51 27.86 96.23 27.95 97.95 28.04 99.67 28.13 101.39 28.23 103.12 28.32 104.84 28.41 106.56 28.5 108.28 28.6 110 28.69 111.71 28.78 113.43 28.88 115.15 28.97 116.87 29.06 118.58 29.15 120.29 29.25 122 29.34 124.17 29.43 126.24 29.52 128.02 29.62 128.83 29.71 127.93 29.8 128.05 29.89 128.16 29.99 128.28 30.08 128.39 30.17 128.5 30.27 128.61 30.36 128.72 30.45 128.82 30.54 128.92 30.64 129.01 30.73 129.1 30.82 129.18 30.91 129.26 31.01 129.33 31.1 129.4 31.19 129.45 31.28 129.5 31.38 129.54 31.47 129.57 31.56 129.59 31.66 129.6 31.75 129.6 31.84 129.58 31.93 129.56 32.03 129.53 32.12 130.33 32.21 130.31 32.3 129.5 32.4 128.48 32.49 127.4 32.58 127.49 32.68 127.58 32.77 127.67 32.86 127.76 32.95 127.85 33.05 127.93 33.14 128.02 33.23 128.1 33.32 128.18 33.42 128.26 33.51 128.34 33.6 128.42 33.69 128.49 33.79 128.56 33.88 128.63 33.97 128.7 34.07 128.77 34.16 128.83 34.25 128.89 34.34 128.94 34.44 129 34.53 129.05 34.62 129.09 34.71 129.13 34.81 129.17 34.9 129.2 34.99 129.23 35.08 129.25 35.18 129.38 35.27 129.27 35.36 129.15 35.46 129.04 35.55 128.92 35.64 128.8 35.73 128.68 35.83 128.57 35.92 128.45 36.01 128.33 36.1 128.21 36.2 128.09 36.29 127.98 36.38 127.86 36.47 127.74 36.57 127.62 36.66 127.5 36.75 127.39 36.85 127.27 36.94 127.15 37.03 127.03 37.12 126.91 37.22 126.8 37.31 126.68 37.4 126.56 37.49 126.44 37.59 126.32 37.68 126.2 37.77 126.09 37.86 125.97 37.96 125.99 38.05 126.01 38.14 126.04 38.24 126.06 38.33 126.08 38.42 126.1 38.51 126.13 38.61 126.15 38.7 126.17 38.79 126.19 38.88 126.21 38.98 126.23 39.07 126.26 39.16 126.28 39.25 126.3 39.35 126.43 39.44 126.56 39.53 126.67 39.63 126.78 39.72 126.87 39.81 126.96 39.9 127.03 40 127.09 40.09 127.14 40.18 127.18 40.27 127.2 40.37 127.21 40.46 127.2 40.55 127.18 40.64 127.15 40.74 127.1 40.83 127.05 40.92 126.97 41.02 126.93 41.11 126.87 41.2 126.81 41.29 126.73 41.39 126.65 41.48 126.55 41.57 126.45 41.66 126.34 41.76 126.22 41.85 126.1 41.94 125.97 42.03 125.83 42.13 125.95 42.22 126.07 42.31 126.19 42.41 126.31 42.5 126.42 42.59 126.54 42.68 126.66 42.78 126.78 42.87 126.9 42.96 127.01 43.05 127.13 43.15 127.25 43.24 127.37 43.33 127.49 43.42 127.6 43.52 127.72 43.61 127.84 43.7 127.96 43.8 127.93 43.89 127.91 43.98 127.89 44.07 127.86 44.17 127.84 44.26 127.81 44.35 127.79 44.44 127.76 44.54 127.74 44.63 127.71 44.72 127.68 44.81 127.66 44.91 127.63 45 127.6 45.09 127.58 45.19 127.55 45.28 127.52 45.37 127.5 45.46 127.47 45.56 127.44 45.65 127.33 45.74 127.23 45.83 127.12 45.93 127 46.02 126.89 46.11 126.78 46.2 126.66 46.3 126.55 46.39 126.43 46.48 126.31 46.58 126.11 46.67 125.91 46.76 125.7 46.85 125.5 46.95 125.3 47.04 125.1 47.13 124.9 47.22 124.69 47.32 124.49 47.41 124.29 47.5 124.09 47.59 123.88 47.69 123.68 47.78 123.48 47.87 123.28 47.97 123.07 48.06 122.87 48.15 122.67 48.24 122.47 48.34 122.27 48.43 122.06 48.52 121.86 48.61 121.66 48.71 121.46 48.8 121.25 48.89 121.05 48.98 120.85 49.08 120.65 49.17 120.44 49.26 120.24 49.36 120.04 49.45 119.84 49.54 119.63 49.63 119.43 49.73 119.23 49.82 119.24 49.91 119.26 50 119.27 50.1 119.28 50.19 119.3 50.28 119.31 50.37 119.32 50.47 119.33 50.56 119.34 50.65 119.36 50.75 119.37 50.84 119.38 50.93 119.39 51.02 119.4 51.12 119.41 51.21 119.44 51.3 119.47 51.39 119.49 51.49 119.52 51.58 119.55 51.67 119.57 51.76 119.6 51.86 119.62 51.95 119.65 52.04 119.67 52.14 119.69 52.23 119.71 52.32 119.73 52.41 119.75 52.51 119.77 52.6 119.84 52.69 119.92 52.78 119.99 52.88 120.06 52.97 120.13 53.06 120.2 53.15 120.26 53.25 120.33 53.34 120.4 53.43 120.47 53.53 120.54 53.62 120.6 53.71 120.67 53.8 120.73 53.9 120.8 53.99 120.86 54.08 120.93 54.17 120.99 54.27 121.05 54.36 121.12 54.45 121.18 54.54 121.24 54.64 121.3 54.73 121.36 54.82 121.42 54.92 121.48 55.01 121.54 55.1 121.6 55.19 121.65 55.29 121.71 55.38 121.47 55.47 121.23 55.56 120.99 55.66 120.75 55.75 120.51 55.84 120.27 55.93 120.02 56.03 119.78 56.12 119.53 56.21 119.28 56.31 119.04 56.4 118.79 56.49 118.54 56.58 118.29 56.68 118.04 56.77 117.81 56.86 117.58 56.95 117.36 57.05 117.13 57.14 116.9 57.23 116.67 57.32 116.44 57.42 116.2 57.51 115.97 57.6 115.74 57.7 115.51 57.79 115.28 57.88 115.04 57.97 114.81 58.07 114.58 58.16 114.51 58.25 114.45 58.34 114.38 58.44 114.32 58.53 114.26 58.62 114.19 58.71 114.13 58.81 114.07 58.9 114 58.99 113.94 59.09 113.88 59.18 113.81 59.27 113.75 59.36 113.68 59.46 113.62 59.55 113.56 59.64 113.49 59.73 113.43 59.83 113.37 59.92 113.3 60.01 113.24 60.1 113.18 60.2 113.11 60.29 113.05 60.38 112.98 60.48 112.92 60.57 112.86 60.66 112.79 60.75 112.73 60.85 112.67 60.94 112.67 61.03 112.68 61.12 112.69 61.22 112.69 61.31 112.7 61.4 112.71 61.49 112.71 61.59 112.72 61.68 112.73 61.77 112.74 61.87 112.74 61.96 112.75 62.05 112.76 62.14 112.76 62.24 112.77 62.33 112.78 62.42 112.78 62.51 112.79 62.61 112.87 62.7 112.95 62.79 113.02 62.88 113.1 62.98 113.18 63.07 113.26 63.16 113.33 63.26 113.41 63.35 113.48 63.44 113.56 63.53 113.64 63.63 113.71 63.72 113.56 63.81 113.41 63.9 113.26 64 113.11 64.09 112.96 64.18 112.81 64.28 112.66 64.37 112.51 64.46 112.36 64.55 112.21 64.65 112.06 64.74 111.91 64.83 111.75 64.92 111.6 65.02 111.45 65.11 111.3 65.2 111.15 65.29 111 65.39 110.84 65.48 110.69 65.57 110.54 65.67 110.39 65.76 110.23 65.85 110.08 65.94 109.93 66.04 109.78 66.13 109.62 66.22 109.47 66.31 109.32 66.41 109.16 66.5 109.2 66.59 109.23 66.68 109.26 66.78 109.29 66.87 109.32 66.96 109.35 67.06 109.38 67.15 109.41 67.24 109.44 67.33 109.47 67.43 109.5 67.52 109.53 67.61 109.56 67.7 109.59 67.8 109.62 67.89 109.66 67.98 109.69 68.07 109.72 68.17 109.75 68.26 107.35 68.35 104.95 68.45 102.55 68.54 100.14 68.63 97.74 68.72 95.34 68.82 92.94 68.91 90.54 69 88.13 69.09 85.73 69.19 83.33 69.28 80.92 69.37 78.52 69.46 76.12 69.56 73.71 69.65 72 69.74 70.28 69.84 68.57 69.93 66.85 70.02 65.14 70.11 63.42 70.21 61.7 70.3 59.99 70.39 58.27 70.48 56.56 70.58 54.84 70.67 53.12 70.76 51.41 70.85 49.69 70.95 47.97 71.04 51.14 71.13 54.3 71.23 57.46 71.32 60.63 71.41 63.79 71.5 66.95 71.6 70.11 71.69 73.28 71.78 76.44 71.87 79.6 71.97 82.76 72.06 85.92 72.15 89.08 72.24 92.24 72.34 95.39 72.43 98.55 72.52 101.7 72.62 103.2 72.71 104.7 72.8 106.2 72.89 107.7 72.99 109.2 73.08 110.7 73.17 112.2 73.26 113.69 73.36 115.19 73.45 116.68 73.54 118.17 73.63 119.66 73.73 121.14 73.82 119.81 73.91 118.48 74.01 117.13 74.1 115.79 74.19 114.44 74.28 113.09 74.38 111.74 74.47 110.38 74.56 109.03 74.65 107.67 74.75 106.31 74.84 104.96 74.93 103.6 75.02 102.24 75.12 100.88 75.21 99.52 75.3 98.16 75.4 97.78 75.49 97.4 75.58 97.02 75.67 96.63 75.77 96.25 75.86 95.87 75.95 95.49 76.04 95.11 76.14 95.28 76.23 95.46 76.32 95.63 76.41 95.81 76.51 95.98 76.6 96.16 76.69 96.33 76.79 96.5 76.88 96.68 76.97 96.85 77.06 96.98 77.16 97.11 77.25 97.24 77.34 97.37 77.43 97.5 77.53 97.63 77.62 97.75 77.71 97.88 77.8 98.01 77.9 98.14 77.99 98.27 78.08 98.23 78.18 98.2 78.27 98.16 78.36 98.13 78.45 98.09 78.55 98.06 78.64 98.02 78.73 97.99 78.82 97.95 78.92 97.92 79.01 97.88 79.1 97.84 79.19 97.81 79.29 97.77 79.38 97.74 79.47 97.7 79.57 97.67 79.66 97.63 79.75 97.6 79.84 97.56 79.94 97.52 80.03 97.49 80.12 97.45 80.21 97.42 80.31 97.38 80.4 97.35 80.49 97.31 80.58 97.28 80.68 97.24 80.77 97.21 80.86 97.05 80.96 96.9 81.05 96.74 81.14 96.59 81.23 96.44 81.33 96.28 81.42 96.13 81.51 95.97 81.6 95.82 81.7 95.67 81.79 95.51 81.88 95.36 81.97 95.2 82.07 95.05 82.16 94.9 82.25 94.74 82.35 94.59 82.44 94.44 82.53 94.28 82.62 94.09 82.72 93.91 82.81 93.72 82.9 93.53 82.99 93.34 83.09 93.16 83.18 92.97 83.27 92.78 83.36 92.6 83.46 92.41 83.55 92.22 83.64 92.03 83.74 91.84 83.83 91.66 83.92 91.47 84.01 91.28 84.11 91.09 84.2 90.91 84.29 90.72 84.38 90.53 84.48 90.34 84.57 90.15 84.66 89.97 84.75 89.78 84.85 89.59 84.94 89.4 85.03 89.21 85.13 89.03 85.22 88.84 85.31 88.65 85.4 88.9 85.5 89.16 85.59 89.41 85.68 89.66 85.77 89.91 85.87 90.17 85.96 90.42 86.05 90.67 86.14 90.92 86.24 91.18 86.33 91.43 86.42 91.68 86.52 91.93 86.61 92.19 86.7 92.44 86.79 92.69 86.89 92.94 86.98 93.19 87.07 93.44 87.16 93.7 87.26 93.95 87.35 94.2 87.44 94.45 87.53 94.7 87.63 94.95 87.72 95.2 87.81 95.45 87.91 95.7 88 95.95 88.09 96.21 88.18 96.9 88.28 97.62 88.37 98.34 88.46 99.07 88.55 99.79 88.65 100.51 88.74 101.24 88.83 101.96 88.92 102.68 89.02 103.41 89.11 104.13 89.2 104.85 89.3 105.58 89.39 106.3 89.48 107.02 89.57 107.75 89.67 108.47 89.76 109.19 89.85 109.91 89.94 110.64 90.04 111.36 90.13 112.08 90.22 112.81 90.31 113.53 90.41 114.25 90.5 114.97 90.59 115.7 90.69 116.42 90.78 117.14 90.87 117.86 90.96 118.94 91.06 119.19 91.15 119.44 91.24 119.67 91.33 119.91 91.43 120.14 91.52 120.36 91.61 120.57 91.7 120.78 91.8 120.98 91.89 121.17 91.98 121.35 92.08 121.52 92.17 121.69 92.26 121.84 92.35 121.98 92.45 122.11 92.54 122.23 92.63 122.34 92.72 122.43 92.82 122.52 92.91 122.58 93 122.64 93.09 122.68 93.19 122.71 93.28 122.72 93.37 122.72 93.47 122.7 93.56 122.67 93.65 122.63 93.74 122.57 93.84 122.58 93.93 122.54 94.02 122.47 94.11 122.36 94.21 122.21 94.3 122.03 94.39 121.82 94.48 121.58 94.58 121.31 94.67 121.01 94.76 120.69 94.86 120.35 94.95 119.99 95.04 119.61 95.13 119.22 95.23 118.81 95.32 118.38 95.41 117.95 95.5 117.5 95.6 117.65 95.69 117.8 95.78 117.94 95.88 118.07 95.97 118.21 96.06 118.34 96.15 118.46 96.25 118.58 96.34 118.7 96.43 118.8 96.52 118.91 96.62 119.01 96.71 119.1 96.8 119.19 96.89 119.28 96.99 119.35 97.08 119.42 97.17 119.49 97.27 119.55 97.36 119.6 97.45 119.65 97.54 119.69 97.64 119.73 97.73 119.76 97.82 119.78 97.91 119.79 98.01 119.8 98.1 119.81 98.19 119.8 98.28 119.79 98.38 119.39 98.47 118.99 98.56 118.58 98.66 118.17 98.75 117.76 98.84 117.35 98.93 116.94 99.03 116.53 99.12 116.12 99.21 115.7 99.3 115.29 99.4 114.87 99.49 114.45 99.58 114.04 99.67 113.62 99.77 113.2 99.86 112.78 99.95 113.1 100.05 113.42 100.14 113.74 100.23 114.06 100.32 114.39 100.42 114.71 100.51 115.03 100.6 115.35 100.69 115.67 100.79 115.99 100.88 116.31 100.97 116.63 101.06 116.95 101.16 117.27 101.25 117.59 101.34 117.91 101.44 118.23 101.53 118.55 101.62 118.88 101.71 119.2 101.81 119.52 101.9 119.84 101.99 120.16 102.08 120.48 102.18 120.8 102.27 121.12 102.36 121.44 102.45 121.76 102.55 122.08 102.64 122.4 102.73 122.72 102.83 123.04 102.92 123.36 103.01 123.68 103.1 124 103.2 124.32 103.29 124.64 103.38 124.96 103.47 125.28 103.57 125.6 103.66 125.92 103.75 126.24 103.84 126.56 103.94 126.88 104.03 127.16 104.12 127.45 104.22 127.73 104.31 128.01 104.4 128.29 104.49 128.57 104.59 128.84 104.68 129.11 104.77 129.37 104.86 129.61 104.96 129.84 105.05 130.05 105.14 130.22 105.23 130.34 105.33 130.39 105.42 130.37 105.51 130.13 105.61 129.87 105.7 129.61 105.79 129.33 105.88 129.06 105.98 128.78 106.07 128.5 106.16 128.22 106.25 127.94 106.35 127.66 106.44 127.38 106.53 127.09 106.62 126.81 106.72 126.52 106.81 126.24 106.9 125.95 107 125.67 107.09 125.38 107.18 125.1 107.27 124.81 107.37 124.53 107.46 124.24 107.55 123.96 107.64 123.67 107.74 123.38 107.83 123.1 107.92 122.81 108.01 122.52 108.11 122.24 108.2 121.95 108.29 122.65 108.39 123.33 108.48 124.01 108.57 124.66 108.66 125.3 108.76 125.91 108.85 126.48 108.94 126.99 109.03 127.43 109.13 127.77 109.22 127.98 109.31 128.03 109.4 127.93 109.5 127.67 109.59 127.38 109.68 127.01 109.78 126.58 109.87 126.1 109.96 125.59 110.05 125.05 110.15 124.49 110.24 123.92 110.33 123.33 110.42 122.74 110.52 122.14 110.61 121.53 110.7 120.91 110.79 120.29 110.89 119.67 110.98 119.04 111.07 118.41 111.17 117.78 111.26 117.14 111.35 116.51 111.44 115.87 111.54 115.23 111.63 114.59 111.72 113.95 111.81 113.31 111.91 112.66 112 112.02 112.09 111.37 112.18 110.73 112.28 110.08 112.37 109.44 112.46 108.79 112.56 108.14 112.65 107.49 112.74 106.84 112.83 106.2 112.93 105.55 113.02 103.76 113.11 101.96 113.2 100.17 113.3 98.37 113.39 96.58 113.48 94.78 113.57 92.98 113.67 91.18 113.76 89.38 113.85 87.58 113.95 85.78 114.04 83.98 114.13 82.18 114.22 80.38 114.32 78.39 114.41 76.41 114.5 74.42 114.59 72.43 114.69 70.44 114.78 68.46 114.87 66.47 114.96 64.48 115.06 62.5 115.15 60.51 115.24 58.52 115.34 56.53 115.43 54.55 115.52 52.56 115.61 50.57 115.71 48.58 115.8 51.56 115.89 54.53 115.98 57.5 116.08 60.47 116.17 63.44 116.26 66.41 116.35 69.38 116.45 72.35 116.54 75.32 116.63 78.29 116.73 81.25 116.82 84.22 116.91 87.18 117 90.14 117.1 93.1 117.19 96.1 117.28 99.1 117.37 102.09 117.47 105.08 117.56 108.07 117.65 111.04 117.74 114.01 117.84 116.94 117.93 119.84 118.02 122.67 118.12 125.3 118.21 127.38 118.3 127.78 118.39 126.13 118.49 123.62 118.58 120.84 118.67 117.96 118.76 115.04 118.86 112.08 118.95 109.11 119.04 106.13 119.13 106.42 119.23 106.71 119.32 107.01 119.41 107.3 119.51 107.6 119.6 107.89 119.69 108.18 119.78 108.48 119.88 108.77 119.97 108.08 120.06 107.38 120.15 106.68 120.25 105.99 120.34 105.29 120.43 104.59 120.52 103.89 120.62 103.2 120.71 102.5 120.8 101.8 120.9 101.1 120.99 100.4 121.08 99.7 121.17 99 121.27 98.3 121.36 97.6 121.45 96.9 121.54 96.2 121.64 95.49 121.73 94.79 121.82 94.09 121.91 93.39 122.01 92.69 122.1 92.01 122.19 91.32 122.29 90.64 122.38 89.96 122.47 89.28 122.56 88.6 122.66 87.91 122.75 87.23 122.84 86.55 122.93 85.87 123.03 85.19 123.12 84.51 123.21 83.83 123.3 83.15 123.4 82.47 123.49 81.79 123.58 81.11 123.68 80.43 123.77 79.74 123.86 79.06 123.95 78.38 124.05 77.7 124.14 77.01 124.23 76.33 124.32 75.65 124.42 74.97 124.51 74.28 124.6 73.6 124.69 72.92 124.79 72.23 124.88 71.55 124.97 70.86 125.07 70.18 125.16 69.5 125.25 68.81 125.34 68.13 125.44 67.44 125.53 66.76 125.62 65.51 125.71 66.39 125.81 67.27 125.9 68.16 125.99 69.04 126.09 69.92 126.18 70.8 126.27 71.68 126.36 72.56 126.46 73.44 126.55 74.32 126.64 75.21 126.73 76.09 126.83 76.97 126.92 77.85 127.01 78.73 127.1 79.61 127.2 80.49 127.29 81.37 127.38 82.26 127.48 83.14 127.57 84.02 127.66 84.9 127.75 85.78 127.85 86.66 127.94 87.54 128.03 88.42 128.12 89.3 128.22 90.19 128.31 91.07 128.4 92.94 128.49 94.82 128.59 96.32 128.68 97.82 128.77 99.33 128.87 100.83 128.96 102.33 129.05 103.84 129.14 105.34 129.24 106.84 129.33 108.35 129.42 109.85 129.51 111.35 129.61 112.85 129.7 114.36 129.79 115.86 129.88 117.36 129.98 118.86 130.07 120.36 130.16 121.86 130.26 123.36 130.35 124.86 130.44 126.36 130.53 127.84 130.63 129.31 130.72 130.62 130.81 130.36 130.9 128.98 131 127.5 131.09 126.01 131.18 124.52 131.27 124.83 131.37 125.14 131.46 126.35 131.55 127.56 131.65 128.76 131.74 129.95 131.83 130.94 131.92 130.4 132.02 129.24 132.11 128.05 132.2 126.84 132.29 125.63 132.39 124.41 132.48 123.2 132.57 121.99 132.66 120.77 132.76 119.55 132.85 118.34 132.94 117.12 133.04 115.91 133.13 114.69 133.22 113.47 133.31 112.26 133.41 111.04 133.5 109.82 133.59 108.61 133.68 107.39 133.78 106.17 133.87 104.95 133.96 103.74 134.05 104.48 134.15 105.23 134.24 104.94 134.33 104.66 134.43 104.37 134.52 104.09 134.61 103.8 134.7 103.52 134.8 103.23 134.89 102.95 134.98 102.66 135.07 102.38 135.17 102.09 135.26 101.81 135.35 101.52 135.44 101.24 135.54 100.95 135.63 100.67 135.72 100.38 135.82 100.09 135.91 99.81 136 99.52 136.09 99.24 136.19 98.95 136.28 98.67 136.37 98.38 136.46 98.1 136.56 97.81 136.65 97.53 136.74 97.24 136.83 96.96 136.93 95.25 137.02 93.54 137.11 91.84 137.21 90.13 137.3 88.42 137.39 86.71 137.48 85.01 137.58 83.3 137.67 81.59 137.76 79.89 137.85 80.06 137.95 80.23 138.04 80.41 138.13 80.58 138.22 80.76 138.32 80.93 138.41 81.11 138.5 81.28 138.6 81.45 138.69 81.63 138.78 81.8 138.87 81.98 138.97 82.15 139.06 82.33 139.15 82.5 139.24 82.67 139.34 82.85 139.43 83.02 139.52 83.2 139.61 83.37 139.71 84.1 139.8 84.84 139.89 85.57 139.99 86.3 140.08 87.03 140.17 87.77 140.26 88.5 140.36 89.23 140.45 89.96 140.54 90.7 140.63 91.43 140.73 92.16 140.82 92.89 140.91 93.63 141 94.36 141.1 95.09 141.19 95.82 141.28 96.56 141.38 97.29 141.47 98.02 141.56 98.75 141.65 99.48 141.75 100.22 141.84 100.95 141.93 101.68 142.02 102.41 142.12 103.15 142.21 103.88 142.3 104.61 142.39 105.34 142.49 105.85 142.58 106.36 142.67 106.87 142.77 107.38 142.86 107.88 142.95 108.39 143.04 108.39 143.14 108.38 143.23 108.38 143.32 108.38 143.41 108.37 143.51 108.37 143.6 108.36 143.69 108.36 143.78 108.35 143.88 108.35 143.97 108.34 144.06 108.34 144.16 108.33 144.25 108.32 144.34 108.32 144.43 108.31 144.53 108.31 144.62 108.3 144.71 108.29 144.8 108.28 144.9 108.28 144.99 108.27 145.08 108.26 145.17 108.26 145.27 108.25 145.36 108.25 145.45 108.25 145.55 108.25 145.64 108.25 145.73 108.24 145.82 108.24 145.92 108.24 146.01 108.24 146.1 108.24 146.19 108.23 146.29 108.23 146.38 108.23 146.47 108.23 146.56 108.22 146.66 108.22 146.75 108.22 146.84 108.22 146.94 108.21 147.03 108.21 147.12 108.21 147.21 108.21 147.31 108.2 147.4 108.2 147.49 108.2 147.58 108.2 147.68 108.19 147.77 108.19 147.86 108.19 147.95 108.19 148.05 110.27 148.14 112.36 148.23 114.45 148.33 116.54 148.42 118.63 148.51 120.72 148.6 122.81 148.7 124.9 148.79 126.99 148.88 129.08 148.97 131.13 149.07 129.71 149.16 127.62 149.25 125.53 149.34 123.44 149.44 121.35 149.53 119.26 149.62 117.07 149.72 114.87 149.81 112.68 149.9 110.49 149.99 108.29 150.09 106.1 150.18 103.9 150.27 101.71 150.36 99.51 150.46 97.32 150.55 95.12 150.64 92.93 150.73 90.73 150.83 88.54 150.92 86.34 151.01 84.15 151.11 81.95 151.2 79.76 151.29 77.57 151.38 75.37 151.48 73.18 151.57 74.43 151.66 75.68 151.75 76.94 151.85 78.19 151.94 79.45 152.03 80.7 152.12 81.96 152.22 83.21 152.31 84.47 152.4 85.72 152.5 86.97 152.59 88.23 152.68 89.48 152.77 90.74 152.87 91.99 152.96 93.25 153.05 94.5 153.14 95.76 153.24 97.01 153.33 98.26 153.42 99.52 153.51 100.77 153.61 102.03 153.7 103.28 153.79 104.54 153.89 105.79 153.98 107.04 154.07 108.3 154.16 109.55 154.26 110.8 154.35 112.06 154.44 113.31 154.53 114.57 154.63 115.82 154.72 117.07 154.81 118.32 154.9 119.58 155 120.83 155.09 122.08 155.18 123.64 155.28 125.2 155.37 126.76 155.46 128.3 155.55 129.81 155.65 130.88 155.74 129.81 155.83 128.29 155.92 126.75 156.02 125.19 156.11 123.63 156.2 122.07 156.29 122.38 156.39 122.68 156.48 122.99 156.57 123.3 156.67 123.6 156.76 123.91 156.85 124.22 156.94 124.52 157.04 124.83 157.13 125.13 157.22 125.44 157.31 125.74 157.41 126.04 157.5 126.34 157.59 126.64 157.69 126.94 157.78 127.24 157.87 127.54 157.96 127.83 158.06 128.12 158.15 128.41 158.24 128.69 158.33 128.96 158.43 129.23 158.52 129.48 158.61 129.71 158.7 129.92 158.8 130.08 158.89 130.2 158.98 130.24 159.08 130.2 159.17 130.09 159.26 129.91 159.35 129.69 159.45 129.44 159.54 129.17 159.63 128.88 159.72 128.59 159.82 128.29 159.91 127.98 160 127.67 160.09 127.36 160.19 127.04 160.28 126.73 160.37 126.41 160.47 126.09 160.56 125.77 160.65 125.44 160.74 125.12 160.84 113.29 160.93 101.46 161.02 89.63 161.11 89.02 161.21 88.4 161.3 87.79 161.39 87.18 161.48 86.56 161.58 85.95 161.67 85.33 161.76 84.72 161.86 84.1 161.95 83.49 162.04 82.95 162.13 82.42 162.23 81.89 162.32 81.35 162.41 80.82 162.5 80.28 162.6 79.75 162.69 79.21 162.78 78.68 162.87 78.15 162.97 77.61 163.06 77.08 163.15 76.54 163.25 76.01 163.34 75.47 163.43 74.94 163.52 74.4 163.62 73.87 163.71 73.34 163.8 72.8 163.89 72.27 163.99 71.73 164.08 71.2 164.17 70.66 164.26 70.13 164.36 69.59 164.45 69.06 164.54 68.52 164.64 67.99 164.73 67.46 164.82 67.07 164.91 66.69 165.01 66.3 165.1 65.92 165.19 65.54 165.28 65.15 165.38 64.77 165.47 64.38 165.56 64 165.65 63.62 165.75 63.23 165.84 62.85 165.93 62.46 166.03 62.08 166.12 61.69 166.21 61.31 166.3 60.93 166.4 60.54 166.49 60.16 166.58 59.77 166.67 59.39 166.77 59.01 166.86 58.62 166.95 60.08 167.04 61.54 167.14 63.01 167.23 64.47 167.32 65.93 167.42 67.39 167.51 68.85 167.6 70.31 167.69 71.77 167.79 73.23 167.88 74.69 167.97 76.16 168.06 77.62 168.16 79.08 168.25 80.54 168.34 82 168.43 83.46 168.53 84.92 168.62 86.38 168.71 87.84 168.81 89.3 168.9 90.76 168.99 92.22 169.08 93.68 169.18 95.15 169.27 96.61 169.36 98.07 169.45 99.53 169.55 100.99 169.64 102.45 169.73 103.9 169.82 105.36 169.92 106.82 170.01 108.28 170.1 109.74 170.2 111.2 170.29 112.65 170.38 114.11 170.47 115.76 170.57 117.41 170.66 119.05 170.75 120.69 170.84 122.32 170.94 123.94 171.03 125.52 171.12 127.06 171.21 128.45 171.31 129.41 171.4 129.26 171.49 128.16 171.59 126.71 171.68 125.16 171.77 123.57 171.86 121.95 171.96 120.32 172.05 118.68 172.14 117.03 172.23 115.38 172.33 113.73 172.42 112.08 172.51 111.69 172.6 111.3 172.7 110.92 172.79 110.53 172.88 110.14 172.98 109.76 173.07 109.37 173.16 108.98 173.25 108.59 173.35 108.21 173.44 107.82 173.53 107.43 173.62 107.04 173.72 106.65 173.81 106.26 173.9 105.88 173.99 105.49 174.09 105.1 174.18 104.71 174.27 104.32 174.37 103.93 174.46 103.54 174.55 103.15 174.64 102.76 174.74 102.37 174.83 101.98 174.92 101.6 175.01 101.21 175.11 100.82 175.2 99.06 175.29 97.3 175.38 95.54 175.48 93.77 175.57 92.01 175.66 90.25 175.76 88.49 175.85 86.72 175.94 84.96 176.03 83.19 176.13 81.43 176.22 79.66 176.31 77.9 176.4 76.13 176.5 74.37 176.59 72.6 176.68 70.84 176.77 69.07 176.87 67.3 176.96 65.54 177.05 63.77 177.15 62 177.24 60.24 177.33 58.47 177.42 56.7 177.52 54.94 177.61 53.17 177.7 51.4 177.79 49.63 177.89 47.87 177.98 49.73 178.07 51.58 178.16 104.54 178.26 105.47 178.35 105.64 178.44 105.82 178.54 105.99 178.63 106.16 178.72 106.33 178.81 106.5 178.91 106.67 179 106.84 179.09 107.02 179.18 107.19 179.28 107.36 179.37 107.53 179.46 107.7 179.55 107.87 179.65 108.04 179.74 108.22 179.83 108.39 179.93 108.56 180.02 108.73 180.11 108.9 180.2 109.07 180.3 109.24 180.39 109.41 180.48 109.59 180.57 109.76 180.67 109.93 180.76 111.93 180.85 113.94 180.94 115.94 181.04 117.95 181.13 119.95 181.22 121.95 181.32 123.96 181.41 125.96 181.5 127.96 181.59 129.95 181.69 130.91 181.78 128.97 181.87 126.98 181.96 124.98 182.06 122.97 182.15 120.97 182.24 118.97 182.33 116.96 182.43 114.96 182.52 112.95 182.61 110.95 182.71 108.94 182.8 106.94 182.89 104.94 182.98 102.93 183.08 100.93 183.17 98.92 183.26 96.92 183.35 94.91 183.45 92.91 183.54 91.08 183.63 89.26 183.72 87.44 183.82 85.61 183.91 83.79 184 84.01 184.1 84.24 184.19 84.46 184.28 84.68 184.37 84.91 184.47 85.13 184.56 85.35 184.65 85.58 184.74 85.8 184.84 86.02 184.93 86.25 185.02 86.47 185.11 86.69 185.21 86.92 185.3 87.14 185.39 87.36 185.49 87.59 185.58 87.81 185.67 88.04 185.76 88.26 185.86 88.48 185.95 88.71 186.04 88.93 186.13 89.15 186.23 89.38 186.32 89.6 186.41 89.82 186.5 90.05 186.6 90.27 186.69 90.49 186.78 90.72 186.88 90.94 186.97 91.16 187.06 91.39 187.15 91.61 187.25 91.83 187.34 92.06 187.43 92.28 187.52 92.5 187.62 92.73 187.71 92.95 187.8 93.17 187.89 93.4 187.99 93.62 188.08 93.84 188.17 94.07 188.27 94.29 188.36 94.51 188.45 94.74 188.54 94.96 188.64 95.18 188.73 95.41 188.82 95.63 188.91 95.85 189.01 96.08 189.1 96.3 189.19 96.52 189.29 96.75 189.38 96.97 189.47 97.19 189.56 97.42 189.66 97.29 189.75 97.16 189.84 97.03 189.93 96.89 190.03 98.95 190.12 101.01 190.21 103.07 190.3 105.13 190.4 107.18 190.49 109.24 190.58 111.3 190.68 113.36 190.77 115.41 190.86 117.47 190.95 119.53 191.05 121.58 191.14 123.64 191.23 125.69 191.32 127.73 191.42 129.73 191.51 130.75 191.6 128.95 191.69 126.92 191.79 124.88 191.88 122.83 191.97 120.77 192.07 118.72 192.16 116.66 192.25 114.6 192.34 112.54 192.44 110.49 192.53 108.43 192.62 106.37 192.71 104.31 192.81 102.25 192.9 100.2 192.99 98.14 193.08 96.08 193.18 94.02 193.27 91.96 193.36 89.9 193.46 87.85 193.55 85.21 193.64 82.56 193.73 79.9 193.83 77.23 193.92 74.56 194.01 71.87 194.1 69.18 194.2 66.49 194.29 63.79 194.38 61.08 194.47 58.37 194.57 55.66 194.66 52.95 194.75 50.23 194.85 47.51 194.94 44.79 195.03 42.07 195.12 39.34 195.22 36.61 195.31 33.88 195.4 31.15 195.49 28.42 195.59 45.38 195.68 62.34 195.77 79.3 195.86 96.25 195.96 113.19 196.05 129.82 196.14 115.8 196.24 98.86 196.33 99.33 196.42 99.79 196.51 100.26 196.61 100.73 196.7 101.2 196.79 101.67 196.88 102.13 196.98 102.6 197.07 103.07 197.16 103.54 197.25 104.01 197.35 104.47 197.44 104.94 197.53 105.41 197.63 105.88 197.72 106.34 197.81 106.81 197.9 107.28 198 107.75 198.09 108.22 198.18 108.68 198.27 109.15 198.37 109.62 198.46 110.09 198.55 110.55 198.64 111.02 198.74 111.49 198.83 111.96 198.92 112.42 199.02 112.89 199.11 113.36 199.2 113.83 199.29 114.29 199.39 114.76 199.48 115.23 199.57 115.7 199.66 116.16 199.76 116.63 199.85 117.1 199.94 117.56 200.03 118.03 200.13 118.5 200.22 118.96 200.31 119.16 200.41 119.37 200.5 119.57 200.59 119.77 200.68 119.97 200.78 120.17 200.87 120.37 200.96 120.57 201.05 120.77 201.15 120.97 201.24 121.17 201.33 121.37 201.42 121.57 201.52 121.77 201.61 121.97 201.7 122.17 201.8 122.37 201.89 122.56 201.98 122.76 202.07 122.79 202.17 122.82 202.26 122.84 202.35 122.87 202.44 122.9 202.54 122.92 202.63 122.94 202.72 122.96 202.81 122.99 202.91 123.01 203 123.02 203.09 123.04 203.19 123.06 203.28 123.08 203.37 123.09 203.46 123.11 203.56 123.12 203.65 123.13 203.74 123.15 203.83 123.16 203.93 123.17 204.02 123.18 204.11 123.18 204.2 123.19 204.3 123.2 204.39 123.2 204.48 123.21 204.58 123.21 204.67 123.21 204.76 123.21 204.85 123.21 204.95 123.21 205.04 123.21 205.13 123.21 205.22 123.2 205.32 123.2 205.41 123.19 205.5 123.18 205.59 123.18 205.69 123.17 205.78 123.16 205.87 123.15 205.97 121.81 206.06 120.46 206.15 119.09 206.24 117.72 206.34 116.34 206.43 114.96 206.52 113.57 206.61 112.18 206.71 110.79 206.8 109.4 206.89 108 206.98 106.61 207.08 105.21 207.17 103.81 207.26 102.41 207.36 101.01 207.45 99.61 207.54 98.21 207.63 96.86 207.73 95.51 207.82 94.16 207.91 92.81 208 91.45 208.1 90.1 208.19 88.75 208.28 87.39 208.37 86.04 208.47 84.68 208.56 83.33 208.65 81.97 208.75 80.62 208.84 79.26 208.93 81.01 209.02 82.76 209.12 84.51 209.21 86.26 209.3 88 209.39 89.75 209.49 91.49 209.58 93.24 209.67 94.98 209.76 96.72 209.86 98.47 209.95 100.21 210.04 101.94 210.14 103.68 210.23 105.41 210.32 107.14 210.41 108.87 210.51 110.59 210.6 112.31 210.69 114.02 210.78 115.72 210.88 117.41 210.97 119.07 211.06 120.71 211.15 122.31 211.25 123.84 211.34 125.25 211.43 126.44 211.53 127.21 211.62 127.34 211.71 127.36 211.8 127.35 211.9 127.33 211.99 127.29 212.08 127.24 212.17 127.16 212.27 127.08 212.36 126.98 212.45 126.86 212.54 126.73 212.64 126.6 212.73 126.45 212.82 126.29 212.92 126.12 213.01 125.94 213.1 125.76 213.19 125.57 213.29 125.38 213.38 125.18 213.47 124.97 213.56 124.76 213.66 124.55 213.75 124.33 213.84 124.11 213.93 123.88 214.03 123.65 214.12 123.78 214.21 123.9 214.31 124.03 214.4 124.15 214.49 124.52 214.58 124.89 214.68 125.25 214.77 125.59 214.86 125.92 214.95 126.23 215.05 126.52 215.14 126.79 215.23 127.03 215.32 127.24 215.42 127.4 215.51 127.52 215.6 127.6 215.7 127.62 215.79 127.6 215.88 127.52 215.97 127.39 216.07 127.23 216.16 127.02 216.25 126.78 216.34 126.51 216.44 126.22 216.53 125.91 216.62 125.57 216.71 125.23 216.81 124.87 216.9 124.51 216.99 124.13 217.09 123.75 217.18 123.36 217.27 122.96 217.36 122.56 217.46 122.16 217.55 121.75 217.64 121.34 217.73 120.92 217.83 120.51 217.92 120.09 218.01 119.67 218.1 119.24 218.2 118.82 218.29 118.39 218.38 117.96 218.48 117.54 218.57 117.11 218.66 116.68 218.75 116.24 218.85 115.81 218.94 115.38 219.03 114.94 219.12 114.51 219.22 114.07 219.31 113.64 219.4 113.2 219.49 112.77 219.59 112.33 219.68 111.89 219.77 111.45 219.87 111.01 219.96 110.58 220.05 110.14 220.14 110.43 220.24 110.73 220.33 112.05 220.42 113.37 220.51 114.7 220.61 116.02 220.7 117.34 220.79 118.66 220.89 119.98 220.98 121.31 221.07 122.63 221.16 123.94 221.26 125.26 221.35 126.58 221.44 127.88 221.53 129.17 221.63 130.36 221.72 130.68 221.81 129.61 221.9 128.34 222 127.04 222.09 125.73 222.18 124.41 222.28 123.09 222.37 121.77 222.46 120.45 222.55 119.13 222.65 117.81 222.74 116.48 222.83 115.16 222.92 113.84 223.02 112.52 223.11 111.19 223.2 109.87 223.29 108.55 223.39 107.23 223.48 105.9 223.57 106.95 223.67 107.99 223.76 109.04 223.85 110.08 223.94 111.13 224.04 112.17 224.13 113.22 224.22 114.27 224.31 115.31 224.41 116.36 224.5 117.4 224.59 118.45 224.68 119.49 224.78 120.54 224.87 121.58 224.96 122.63 225.06 123.67 225.15 124.71 225.24 125.76 225.33 126.8 225.43 127.84 225.52 128.88 225.61 129.91 225.7 131.11 225.8 130.13 225.89 128.73 225.98 127.32 226.07 125.9 226.17 124.47 226.26 123.05 226.35 121.63 226.45 120.21 226.54 118.78 226.63 118.71 226.72 118.63 226.82 118.55 226.91 118.47 227 118.39 227.09 118.32 227.19 118.24 227.28 118.16 227.37 118.08 227.46 118 227.56 117.92 227.65 117.85 227.74 117.77 227.84 117.69 227.93 117.61 228.02 117.53 228.11 117.45 228.21 117.37 228.3 117.3 228.39 117.22 228.48 117.14 228.58 117.06 228.67 116.98 228.76 116.9 228.85 116.82 228.95 116.74 229.04 116.66 229.13 116.58 229.23 116.51 229.32 116.43 229.41 116.35 229.5 116.27 229.6 116.19 229.69 116.11 229.78 116.03 229.87 115.13 229.97 114.24 230.06 113.34 230.15 112.45 230.24 111.55 230.34 110.66 230.43 109.76 230.52 108.86 230.62 107.97 230.71 107.07 230.8 106.18 230.89 105.28 230.99 104.38 231.08 103.49 231.17 102.59 231.26 101.8 231.36 101 231.45 100.2 231.54 99.41 231.63 98.61 231.73 97.82 231.82 97.02 231.91 96.22 232.01 95.43 232.1 94.63 232.19 93.84 232.28 93.04 232.38 92.24 232.47 91.45 232.56 90.65 232.65 90.82 232.75 90.98 232.84 91.15 232.93 91.32 233.02 91.48 233.12 91.65 233.21 91.81 233.3 91.98 233.4 92.14 233.49 92.31 233.58 92.47 233.67 92.64 233.77 92.81 233.86 92.97 233.95 93.14 234.04 93.3 234.14 93.47 234.23 93.63 234.32 93.8 234.41 93.96 234.51 94.13 234.6 94.3 234.69 94.46 234.79 94.63 234.88 94.79 234.97 94.96 235.06 95.12 235.16 95.29 235.25 95.45 235.34 95.62 235.43 95.78 235.53 95.69 235.62 95.6 235.71 95.5 235.8 95.41 235.9 95.32 235.99 95.22 236.08 95.13 236.18 95.04 236.27 94.95 236.36 94.85 236.45 94.76 236.55 94.67 236.64 94.57 236.73 94.48 236.82 94.26 236.92 94.05 237.01 93.84 237.1 93.62 237.19 93.41 237.29 93.19 237.38 92.98 237.47 92.76 237.57 92.55 237.66 92.33 237.75 92.12 237.84 91.91 237.94 91.69 238.03 91.48 238.12 91.26 238.21 91.05 238.31 90.84 238.4 90.64 238.49 90.43 238.58 90.22 238.68 90.02 238.77 89.81 238.86 89.61 238.96 89.4 239.05 89.19 239.14 88.99 239.23 88.78 239.33 88.58 239.42 88.37 239.51 88.17 239.6 87.96 239.7 87.75 239.79 87.55 239.88 87.34 239.97 87.14 240.07 86.93 240.16 86.72 240.25 86.52 240.35 86.31 240.44 86.11 240.53 85.9 240.62 85.69 240.72 85.49 240.81 85.28 240.9 85.08 240.99 84.87 241.09 84.66 241.18 84.46 241.27 84.25 241.36 84.05 241.46 83.84 241.55 83.63 241.64 83.43 241.74 83.22 241.83 83.02 241.92 82.81 242.01 82.6 242.11 82.4 242.2 82.19 242.29 81.99 242.38 81.78 242.48 80.4 242.57 79.01 242.66 77.63 242.75 76.25 242.85 74.86 242.94 73.48 243.03 72.1 243.13 70.71 243.22 69.33 243.31 67.95 243.4 66.56 243.5 65.18 243.59 63.8 243.68 62.42 243.77 61.03 243.87 59.65 243.96 58.44 244.05 57.23 244.14 56.02 244.24 54.81 244.33 53.6 244.42 52.39 244.52 51.18 244.61 49.97 244.7 48.76 244.79 47.55 244.89 46.34 244.98 45.13 245.07 43.92 245.16 42.71 245.26 43.41 245.35 44.11 245.44 44.81 245.53 45.51 245.63 46.21 245.72 46.91 245.81 47.61 245.91 48.31 246 49.01 246.09 49.71 246.18 50.41 246.28 51.11 246.37 51.81 246.46 52.51 246.55 53.21 246.65 53.91 246.74 54.52 246.83 55.14 246.92 55.75 247.02 56.36 247.11 56.97 247.2 57.58 247.3 58.19 247.39 58.8 247.48 59.42 247.57 60.03 247.67 60.64 247.76 61.25 247.85 61.86 247.94 62.47 248.04 63.08 248.13 63.69 248.22 64.31 248.31 64.76 248.41 65.21 248.5 65.67 248.59 66.12 248.69 66.57 248.78 67.03 248.87 67.48 248.96 67.93 249.06 68.39 249.15 68.84 249.24 69.29 249.33 69.75 249.43 70.2 249.52 70.65 249.61 71.11 249.7 71.56 249.8 72.47 249.89 73.38 249.98 74.28 250.08 75.19 250.17 76.1 250.26 77 250.35 77.91 250.45 78.82 250.54 79.72 250.63 80.63 250.72 81.54 250.82 82.44 250.91 83.35 251 84.26 251.1 84.6 251.19 84.95 251.28 85.3 251.37 85.65 251.47 86 251.56 86.35"/>
      </g>
    </g>
  </g>
</g>
  <g class="guide ylabels" font-size="2.82" font-family="'PT Sans Caption','Helvetica Neue','Helvetica',sans-serif" fill="#A1A1A1" id="img-c2d4a47a-14">
    <text x="16.79" y="131.49" text-anchor="end" dy="0.35em">0</text>
    <text x="16.79" y="106.59" text-anchor="end" dy="0.35em">10</text>
    <text x="16.79" y="81.69" text-anchor="end" dy="0.35em">20</text>
    <text x="16.79" y="56.8" text-anchor="end" dy="0.35em">30</text>
    <text x="16.79" y="31.9" text-anchor="end" dy="0.35em">40</text>
    <text x="16.79" y="7" text-anchor="end" dy="0.35em">50</text>
  </g>
  <g font-size="3.88" font-family="'PT Sans','Helvetica Neue','Helvetica',sans-serif" fill="#A1A1A1" stroke="#000000" stroke-opacity="0.000" id="img-c2d4a47a-15">
    <text x="8.81" y="67.24" text-anchor="middle" dy="0.35em" transform="rotate(-90, 8.81, 69.24)">Difference in Position (Aircraft Lengths)</text>
  </g>
</g>
<defs>
  <clipPath id="img-c2d4a47a-5">
  <path d="M17.79,5 L 299.8 5 299.8 133.49 17.79 133.49" />
</clipPath>
</defs>
</svg>
